<svg id="Capa_1" enable-background="new 0 0 512.089 512.089" height="512" viewBox="0 0 512.089 512.089" width="512" xmlns="http://www.w3.org/2000/svg"><g><circle cx="211.984" cy="225.353" fill="#5766cb" r="211.984"/><path d="m423.968 225.353c0-117.076-94.909-211.984-211.984-211.984-4.917 0-9.791.182-14.625.511 101.361 6.908 183.342 85.121 195.725 185.121 1.92 15.505-6.254 30.425-20.265 37.339-14.384 7.099-25.555 16.43-33.88 25.294-16.59-17.666-44.462-37.213-86.574-37.213-30.107 0-57.777 11.224-77.913 31.605-19.552 19.789-30.319 46.226-30.319 74.442 0 33.429 15.809 67.597 45.72 98.813 2.424 2.53 4.953 5.043 7.562 7.54-.018.002-.037.004-.055.005 122.296 8.735 226.608-88.714 226.608-211.473z" fill="#3d4fc3"/><circle cx="211.984" cy="225.353" fill="#f4fbff" r="162.725"/><path d="m374.709 225.353c0-89.871-72.854-162.725-162.725-162.725-4.992 0-9.928.237-14.806.677 82.93 7.482 147.919 77.169 147.919 162.048 0 .115-.001.231-.002.348-.136 15.259-17.026 24.372-29.95 16.26-15.889-9.973-36.578-17.54-62.78-17.54-30.107 0-57.777 11.224-77.913 31.605-19.552 19.789-30.319 46.226-30.319 74.442 0 15.666 3.472 31.494 10.24 47.105 105.709 40.029 220.336-37.835 220.336-152.22z" fill="#daf1f4"/><g><g><path d="m211.984 112.972c-4.272 0-7.735-3.463-7.735-7.735v-10.935c0-4.272 3.463-7.735 7.735-7.735s7.735 3.463 7.735 7.735v10.935c0 4.273-3.463 7.735-7.735 7.735z" fill="#365e7d"/></g><g><path d="m296.919 148.153c-1.979 0-3.959-.755-5.47-2.265-3.02-3.021-3.02-7.918 0-10.94l7.732-7.732c3.021-3.019 7.918-3.019 10.94 0 3.02 3.021 3.02 7.918 0 10.94l-7.732 7.732c-1.511 1.51-3.491 2.265-5.47 2.265z" fill="#365e7d"/></g><g><path d="m343.034 233.088h-10.934c-4.272 0-7.735-3.463-7.735-7.735s3.463-7.735 7.735-7.735h10.935c4.272 0 7.735 3.463 7.735 7.735-.001 4.272-3.463 7.735-7.736 7.735z" fill="#365e7d"/></g><g><path d="m119.317 325.754c-1.979 0-3.959-.755-5.47-2.265-3.02-3.021-3.02-7.918 0-10.94l7.732-7.732c3.021-3.019 7.918-3.019 10.94 0 3.02 3.021 3.02 7.918 0 10.94l-7.732 7.732c-1.51 1.51-3.491 2.265-5.47 2.265z" fill="#365e7d"/></g><g><path d="m91.868 233.088h-10.934c-4.272 0-7.735-3.463-7.735-7.735s3.463-7.735 7.735-7.735h10.935c4.272 0 7.735 3.463 7.735 7.735-.001 4.272-3.463 7.735-7.736 7.735z" fill="#365e7d"/></g><g><path d="m127.049 148.153c-1.979 0-3.959-.755-5.47-2.265l-7.732-7.732c-3.02-3.021-3.02-7.918 0-10.94 3.021-3.019 7.918-3.019 10.94 0l7.732 7.732c3.02 3.021 3.02 7.918 0 10.94-1.511 1.51-3.491 2.265-5.47 2.265z" fill="#365e7d"/></g></g><g><path d="m211.984 236.269h-37.587c-4.272 0-7.735-3.463-7.735-7.735s3.463-7.735 7.735-7.735h29.852v-65.465c0-4.272 3.463-7.735 7.735-7.735s7.735 3.463 7.735 7.735v73.2c0 4.273-3.463 7.735-7.735 7.735z" fill="#2b4d66"/></g><path d="m334.788 291.276c1.952 3.026 6.353 3.026 8.304 0 9.278-14.386 34.718-45.197 82.423-45.197 51.252 0 86.575 38.986 86.575 84.388 0 52.227-47.554 113.962-170.834 167.77-1.471.642-3.161.642-4.632 0-123.28-53.807-170.834-115.542-170.834-167.769 0-45.403 35.322-84.388 86.575-84.388 47.705-.001 73.145 30.811 82.423 45.196z" fill="#dd636e"/><g><path d="m425.514 246.079c-6.223 0-12.06.532-17.539 1.475 42.033 7.456 69.825 42.649 69.825 82.913 0 50.079-43.723 108.9-156.005 161.092 4.817 2.239 9.759 4.466 14.83 6.679 1.47.642 3.159.642 4.629 0 123.28-53.808 170.834-115.544 170.834-167.771.001-45.402-35.322-84.388-86.574-84.388z" fill="#da4a54"/></g></g></svg>