<svg height="512" viewBox="0 0 64 64" width="512" xmlns="http://www.w3.org/2000/svg"><g id="house-stay_at_home-coronavirus-covid19-covid" data-name="house-stay at home-coronavirus-covid19-covid"><path d="m56 7v11l-8-1v-10z" fill="#ffdaaa"/><path d="m58 28v33h-52v-33l26-15z" fill="#c6c5ca"/><path d="m61 20v6l-29-17-29 17v-6l29-17z" fill="#ff9811"/><path d="m34 44v11h-22v-11a8 8 0 0 1 8-8h6a8 8 0 0 1 8 8z" fill="#91dc5a"/><path d="m52 44v11h-22v-11a8 8 0 0 1 8-8h6a8 8 0 0 1 8 8z" fill="#ffda44"/><path d="m43 48v10h-22v-10a8 8 0 0 1 8-8h6a8 8 0 0 1 8 8z" fill="#2488ff"/><circle cx="23" cy="30" fill="#f0d0b4" r="6"/><circle cx="41" cy="30" fill="#f0d0b4" r="6"/><circle cx="32" cy="34" fill="#f5e0cd" r="6"/><g fill="#004fac"><path d="m27 47.08-.91 10.92h-2.01l.92-11.08z"/><path d="m39.92 58h-2.01l-.91-10.92 2-.16z"/></g></g></svg>